<?xml version="1.0" standalone="no"?>
<!DOCTYPE svg PUBLIC "-//W3C//DTD SVG 20010904//EN"
 "http://www.w3.org/TR/2001/REC-SVG-20010904/DTD/svg10.dtd">
<svg version="1.0" xmlns="http://www.w3.org/2000/svg"
 width="1332.000000pt" height="1332.000000pt" viewBox="0 0 1332.000000 1332.000000"
 preserveAspectRatio="xMidYMid meet">
<metadata>
Created by potrace 1.11, written by Peter Selinger 2001-2013
</metadata>
<g transform="translate(0.000000,1332.000000) scale(0.100000,-0.100000)"
fill="#000000" stroke="none">
<path d="M2700 9619 c-218 -46 -420 -151 -566 -294 -104 -103 -158 -178 -220
-310 -74 -156 -88 -222 -88 -425 -1 -249 28 -375 119 -516 l44 -69 -875 -3
-874 -2 1 -693 0 -692 457 -1445 458 -1445 5094 0 c4895 0 5098 1 5178 18 599
132 961 612 903 1200 -20 210 -59 324 -147 435 l-54 67 480 3 480 2 -2 1278
-3 1277 -522 3 -522 2 34 73 c46 97 63 169 76 315 19 220 -14 417 -100 597
-142 297 -414 512 -768 608 l-118 32 -4185 2 c-4145 2 -4186 1 -4280 -18z
m3760 -724 l0 -415 -547 -2 -548 -3 0 -855 0 -855 -452 -3 -453 -2 0 860 0
860 -595 0 c-531 0 -595 -2 -595 -16 0 -8 70 -90 156 -182 187 -199 252 -283
298 -383 50 -109 70 -212 70 -354 -1 -145 -19 -225 -79 -350 -78 -162 -188
-272 -350 -350 -175 -84 -68 -79 -1512 -82 l-1283 -4 0 451 0 450 1021 2 c933
3 1023 4 1032 19 9 14 -15 44 -128 165 -158 171 -214 243 -260 334 -147 294
-121 589 73 832 85 107 198 183 360 244 142 54 80 52 2005 53 l1787 1 0 -415z
m1817 403 c8 -13 74 -223 520 -1662 215 -693 263 -860 252 -867 -8 -5 -216 -8
-463 -6 l-450 2 -58 183 -59 182 -432 -2 -432 -3 -56 -180 -56 -180 -460 -3
c-361 -2 -463 1 -470 10 -7 9 -2 41 17 103 16 50 187 614 380 1255 194 641
357 1168 364 1172 6 4 322 8 703 8 543 0 694 -3 700 -12z m2898 -15 c338 -91
569 -302 647 -592 16 -60 21 -106 21 -216 0 -165 -19 -251 -83 -373 -54 -104
-115 -171 -235 -258 -160 -117 -152 -109 -135 -128 7 -10 27 -25 44 -34 28
-15 94 -17 684 -20 l652 -3 0 -450 0 -450 -802 4 c-785 3 -805 3 -884 24 -97
26 -176 60 -241 104 -26 17 -175 158 -330 313 l-283 281 0 -363 0 -362 -500 0
-500 0 0 1275 0 1276 933 -4 c916 -3 933 -3 1012 -24z m-9581 -2711 c3 -5 48
-154 101 -332 52 -178 98 -326 100 -329 3 -2 7 -2 9 0 2 2 43 144 90 314 48
171 91 320 96 333 l10 22 523 0 524 0 103 -332 c57 -183 105 -335 107 -337 8
-10 20 26 112 336 l98 328 473 3 c261 1 478 -2 482 -6 7 -7 -502 -1704 -742
-2474 l-21 -68 -429 0 -428 0 -16 48 c-8 26 -72 236 -142 467 -69 231 -130
427 -134 435 -9 15 -6 24 -193 -580 l-114 -365 -427 0 -428 0 -389 1259 c-214
693 -387 1266 -385 1273 4 10 103 13 510 13 278 0 507 -4 510 -8z m4672 0 c7
-4 177 -540 379 -1192 201 -652 376 -1215 387 -1251 12 -37 18 -74 15 -83 -6
-15 -48 -16 -458 -14 -389 3 -453 5 -460 18 -5 8 -32 89 -61 180 l-53 165
-432 3 -431 2 -36 -117 c-20 -65 -47 -147 -59 -183 l-22 -65 -463 -3 c-376 -2
-464 0 -468 11 -4 12 738 2482 758 2520 8 16 52 17 701 17 381 0 697 -4 703
-8z m2968 -25 c263 -72 475 -234 577 -442 61 -125 74 -187 74 -360 0 -175 -13
-235 -77 -365 -33 -69 -58 -101 -127 -170 -47 -47 -125 -112 -174 -143 -79
-52 -86 -60 -76 -78 6 -12 27 -28 47 -37 33 -15 106 -17 695 -20 671 -3 693
-2 685 33 -2 7 -68 82 -146 168 -160 172 -199 222 -246 317 -147 291 -123 583
68 827 116 148 328 263 541 293 41 6 404 10 883 10 l812 0 0 -415 0 -415 -630
0 c-540 0 -631 -2 -636 -14 -4 -10 53 -78 156 -189 187 -202 238 -266 285
-362 56 -113 77 -209 78 -360 1 -156 -15 -230 -78 -360 -99 -205 -267 -342
-500 -407 l-80 -23 -1075 0 -1075 0 -87 22 c-107 28 -198 68 -262 118 -27 20
-166 156 -309 301 -143 145 -266 264 -273 264 -12 0 -14 -60 -14 -355 l0 -355
-497 2 -498 3 -3 1273 -2 1273 932 -3 933 -3 99 -28z"/>
<path d="M7582 8479 c-5 -19 -51 -168 -102 -332 -66 -214 -89 -302 -81 -310
10 -10 362 -19 389 -9 6 2 12 12 12 22 0 23 -190 642 -201 654 -4 4 -12 -7
-17 -25z"/>
<path d="M10245 8578 c-3 -8 -4 -79 -3 -158 l3 -145 295 -3 c280 -2 297 -1
328 18 53 32 74 75 69 143 -4 68 -26 103 -83 132 -36 18 -62 20 -322 23 -230
3 -283 1 -287 -10z"/>
<path d="M5587 5773 c-16 -27 -198 -639 -195 -657 3 -21 7 -21 194 -24 156 -2
193 0 203 12 9 11 -9 82 -89 343 -56 180 -103 329 -105 331 -2 2 -5 0 -8 -5z"/>
<path d="M8292 5848 c-16 -16 -17 -294 -1 -304 15 -9 576 -5 602 5 36 14 76
61 87 102 23 84 -27 168 -113 194 -66 20 -556 22 -575 3z"/>
</g>
</svg>
